# xmcd
#
# Track frame offsets: 
#        150
#        16131
#        30521
#        46288
#        62677
#        78579
#        92297
#        110605
#        122356
#        140551
#        156442
#        171356
#        189077
#        203899
#        216220
#        232511
#        246991
#        259296
#        273674
#        290861
#        306697
#        320217
#        335948
#
# Disc length: 4668 seconds
#
# Revision: 0
# Processed by: cddbd v1.5.2PL0 Copyright (c) Steve Scherf et al.
# Submitted via: ExactAudioCopy v1.1
#
DISCID=5c123a17
DTITLE=Various Artist - MNM Party 2015 Volume 2 - CD 2 - Hottest Party Flashb
DTITLE=acks
DYEAR=2015
DGENRE=Dance
TTITLE0=House Of Pain - Jump Around
TTITLE1=Martin Solveig and Dragonette - Hello
TTITLE2=Eve - Who's That Girl?
TTITLE3=The Black Eyed Peas - Boom Boom Pow
TTITLE4=John Dahlbäck - Blink
TTITLE5=Armand Van Helden - My My My
TTITLE6=De Jeugd Van Tegenwoordig - Hollereer
TTITLE7=Yolanda Be Cool and DCup - We No Speak Americano
TTITLE8=Pitbull Feat. Ne-Yo, Afrojack and Nayer - Give Me Everything
TTITLE9=The Black and White Brothers - Put Your Hands Up
TTITLE10=Milk Inc. - Forever
TTITLE11=Outkast - Hey Ya!
TTITLE12=Duke Dumont Feat. Jax Jones - I Got U
TTITLE13=Chuckie and LMFAO - Let The Bass Kick In Miami Bitch
TTITLE14=Sean Paul - Temperature
TTITLE15=Sylver - Foreign Affair
TTITLE16=Fatman Scoop Feat. The Crooklyn Clan - Be Faithful
TTITLE17=Michael Gray - The Weekend
TTITLE18=Nina Sky Feat. Jabba - Move Ya Body
TTITLE19=Asaf Avidan - One Day - Reckoning Song (Wankelmut Remix)
TTITLE20=Timbaland Feat. Keri Hilson - The Way I Are
TTITLE21=Ricky L Feat. M:ck - Born Again (Balearic Soul Mix)
TTITLE22=The Opposites - Licht uit
EXTD=
EXTT0=
EXTT1=
EXTT2=
EXTT3=
EXTT4=
EXTT5=
EXTT6=
EXTT7=
EXTT8=
EXTT9=
EXTT10=
EXTT11=
EXTT12=
EXTT13=
EXTT14=
EXTT15=
EXTT16=
EXTT17=
EXTT18=
EXTT19=
EXTT20=
EXTT21=
EXTT22=
PLAYORDER=
